<svg width="22" height="21" viewBox="0 0 22 21" fill="none" xmlns="http://www.w3.org/2000/svg">
<g clip-path="url(#clip0_117_115)">
<path d="M21.2571 3.89755C20.502 4.2328 19.6904 4.45858 18.8386 4.56035C19.7083 4.03952 20.3763 3.21423 20.6901 2.23073C19.8768 2.71307 18.9754 3.06371 18.0159 3.25272C17.2487 2.43427 16.1532 1.92285 14.9422 1.92285C12.2235 1.92285 10.2257 4.45943 10.8397 7.09265C7.34103 6.91733 4.23829 5.2411 2.16097 2.6934C1.05773 4.586 1.58882 7.06186 3.46346 8.31561C2.77416 8.29338 2.12419 8.10437 1.55718 7.7888C1.511 9.73955 2.90928 11.5646 4.93444 11.9708C4.34177 12.1316 3.69266 12.1692 3.03243 12.0427C3.5678 13.7155 5.12259 14.9324 6.96644 14.9666C5.19614 16.3547 2.96573 16.9747 0.731895 16.7113C2.59542 17.906 4.80958 18.603 7.18709 18.603C15.0055 18.603 19.4227 11.9999 19.1559 6.0775C19.9786 5.48313 20.6927 4.74165 21.2571 3.89755Z" fill="white"/>
</g>
<defs>
<clipPath id="clip0_117_115">
<rect width="20.5253" height="20.5253" fill="white" transform="translate(0.731888)"/>
</clipPath>
</defs>
</svg>
